<svg fill="none" height="20" viewBox="0 0 21 20" width="21" xmlns="http://www.w3.org/2000/svg"><path clip-rule="evenodd" d="m13.5 3.00001c-1.0822-.00196-2.1354.34913-3 1-.74285-.55714-1.62616-.89641-2.55096-.9798-.92481-.08339-1.85456.0924-2.68509.50766-.83053.41527-1.52904 1.0536-2.01722 1.84348-.48817.78988-.74673 1.7001-.74673 2.62866 0 4.77999 6.322 8.36299 7.043 8.75599.2936.16.6226.2438.957.2438s.6634-.0838.957-.2438c.721-.393 7.043-3.976 7.043-8.75599-.0016-1.3256-.5289-2.59645-1.4662-3.53378-.9374-.93734-2.2082-1.46463-3.5338-1.46622z" fill-rule="evenodd"/></svg>