<svg fill="none" height="20" viewBox="0 0 21 20" width="21" xmlns="http://www.w3.org/2000/svg"><path clip-rule="evenodd" d="m9.5 11v6c0 .2652.10537.5196.29291.7071.18753.1875.44189.2929.70709.2929s.5196-.1054.7071-.2929.2929-.4419.2929-.7071v-6h6c.2652 0 .5196-.1054.7071-.2929s.2929-.4419.2929-.7071c0-.26522-.1054-.51956-.2929-.70709-.1875-.18754-.4419-.29291-.7071-.29291h-6v-6c0-.26522-.1054-.51956-.2929-.70709-.1875-.18754-.4419-.29291-.7071-.29291s-.51956.10537-.70709.29291c-.18754.18753-.29291.44187-.29291.70709v6h-6c-.26522 0-.51956.10537-.70709.29291-.18754.18753-.29291.44187-.29291.70709 0 .2652.10537.5196.29291.7071.18753.1875.44187.2929.70709.2929z" fill-rule="evenodd"/></svg>