<svg fill="none" height="20" viewBox="0 0 21 20" width="21" xmlns="http://www.w3.org/2000/svg"><path clip-rule="evenodd" d="m16.931 10.4-.722-.417.722-.38c.4586-.26488.7934-.70083.931-1.21225.1376-.51141.0668-1.05651-.197-1.51575l-1-1.74c-.1317-.22886-.3074-.42948-.5168-.59035-.2094-.16086-.4486-.27881-.7037-.34709s-.5211-.08555-.7829-.05081c-.2617.03474-.5141.1208-.7426.25325l-.72.416.02-.816c0-.53043-.2107-1.03914-.5858-1.41422-.3751-.37507-.8837-.58578-1.4142-.58578h-1.99998c-.53043 0-1.03911.21071-1.41418.58578-.37508.37508-.58582.88379-.58582 1.41422v.826l-.70001-.427c-.22814-.13178-.48-.2173-.74121-.25168s-.52666-.01694-.78113.05132-.49297.186-.7019.3465c-.20894.16049-.38419.3606-.51575.58886l-1 1.74c-.26377.45924-.33462 1.00434-.19702 1.51576.1376.51141.47243.94736.93103 1.21224l.70801.409-.70801.388c-.4586.2649-.79343.7008-.93103 1.2122-.1376.5115-.06675 1.0566.19702 1.5158l1 1.74c.13156.2283.30681.4284.51575.5889.20893.1605.44743.2782.7019.3465.25447.0682.51992.0857.78113.0513s.51307-.1199.74121-.2517l.72003-.416-.02002.814c0 .5304.21074 1.0391.58582 1.4142.37507.3751.88375.5858 1.41418.5858h1.99998c.5305 0 1.0391-.2107 1.4142-.5858s.5858-.8838.5858-1.4142v-.826l.7.427c.461.2659 1.0087.3379 1.5227.2.514-.1378.9522-.4741 1.2183-.935l1-1.74c.2636-.4585.3349-1.0026.1982-1.5135-.1366-.5108-.47-.9468-.9272-1.2125zm-1.726 1.314.723.417-1 1.74-.72-.416c-.2995-.1733-.6395-.2645-.9855-.2645s-.6859.0912-.9855.2645l-.028.016c-.2999.1712-.5492.4185-.7227.7171-.1735.2985-.265.6376-.2653.9829v.829h-1.99996v-.826c-.00056-.3451-.0921-.684-.26538-.9824-.17329-.2985-.42219-.546-.72162-.7176l-.02899-.016c-.29947-.1735-.63945-.2648-.98554-.2648-.34608 0-.68601.0913-.98547.2648l-.72004.416-1-1.74.70502-.413c.30216-.1744.55308-.4252.72754-.7273s.2663-.6448.2663-.9937c0-.34886-.09184-.69158-.2663-.99368-.17446-.30211-.42538-.55295-.72754-.72732l-.70898-.409 1-1.74.71997.416c.2995.17338.63947.26468.98553.26468.34607 0 .68598-.0913.98548-.26468l.02801-.016c.2999-.17115.54921-.41853.72272-.71707.1735-.29854.26501-.63763.26526-.98293v-.83h1.99999v.826c.0006.34523.0922.68421.2657.9827s.4227.54592.7223.7173l.028.016c.2994.17358.6394.265.9855.265s.6861-.09142.9855-.265l.72-.416 1 1.74-.723.417c-.2983.17232-.5458.42018-.7179.71861-.172.29843-.2624.63692-.2621.98139v.024c-.0013.3459.0891.6861.2619.9857.1729.2997.422.5482.7221.7203zm-4.986-3.714c-.39554 0-.78222.1173-1.11112.33706s-.58526.53212-.73664.89757c-.15137.36546-.19094.76757-.11377 1.15557.07717.3879.26766.7443.54737 1.024.2797.2797.63602.4702 1.02398.5474.38798.0771.79018.0375 1.15558-.1138.3655-.1514.6778-.4078.8976-.7367.2197-.3289.337-.7155.337-1.1111 0-.53043-.2107-1.03914-.5858-1.41422-.3751-.37507-.8837-.58578-1.4142-.58578z" fill-rule="evenodd"/></svg>